<svg xmlns="http://www.w3.org/2000/svg" viewBox="0 0 32 32"><style>path{fill:#000}@media (prefers-color-scheme:dark){path{fill:#fff}}</style><path d="M9.933 15.256 8.5 18.203l7.477.137 1.299-2.734.192 13.847 3.849-1.492.21-11.707-4.215-.88-7.379-.118Zm11.86 1.224v1.813l.892-.408-.891-1.405ZM17.957 5.924c0-.985.309-1.872.801-2.498-1.008.303-2.724.98-3.637 2.27-.923 1.307-.627 9.154-.627 9.154l1.881.091s-.18-6.026.18-6.615c.394-.648 1.272-.495 1.98-.222-.359-.593-.578-1.355-.578-2.18Z"/><path d="M20.96 2.5c-1.396 0-2.53 1.532-2.53 3.419 0 1.89 1.132 3.419 2.53 3.419 1.4 0 2.532-1.532 2.532-3.42 0-1.886-1.133-3.418-2.531-3.418Zm-.15 6.602c-1.201 0-2.172-1.438-2.172-3.215 0-1.778.972-3.215 2.171-3.215 1.2 0 2.172 1.437 2.172 3.215 0 1.777-.971 3.215-2.172 3.215Z"/><path d="M21.867 6.813a.69.69 0 0 1-.664-.499l.664-.181-.677-.105a.68.68 0 0 1 .677-.57c.224 0 .42.104.547.267-.14-.503-.569-.87-1.08-.87-.621 0-1.128.544-1.128 1.22 0 .677.505 1.22 1.129 1.22.434 0 .815-.267 1-.66a.69.69 0 0 1-.468.178Zm-1.068-3.904c.556 0 .887.404.887.404s-.323-.214-.86-.214c-.537 0-.958.335-.958.335s.304-.525.931-.525Zm-.622 5.922s.44.172.664.172c.224 0 .582-.123.582-.123s-.264.054-.569.054c-.304.001-.677-.103-.677-.103Zm-5.8 19.423c-.032.142-.037.327.022.345.05.014.121-.067.174-.286.005-.059.008-.123.018-.19.006-.04.009-.072.022-.104a.154.154 0 0 0-.058-.027c-.088 0-.152.136-.178.262Zm-1.648-.358c-.067-.022-.135.158-.161.281-.009.045-.009.1-.009.145.192-.135.228-.408.17-.426Zm-1.389-.054c-.063-.022-.124.155-.153.273a.485.485 0 0 0 .005.176c.183-.136.207-.427.148-.449Zm4.806.493c-.036.145-.04.34.022.359.05.018.125-.068.188-.281 0-.105.008-.218.021-.335-.013-.005-.021-.005-.036-.009-.102-.01-.163.132-.195.266Z"/><path fill-rule="evenodd" d="m17.114 16.593.31 12.907-7.208-.453-.327-10.256 6.49.862.735-3.06Z"/></svg>